<?xml version="1.0" encoding="UTF-8" standalone="no"?>
<!-- Created with Inkscape (http://www.inkscape.org/) -->

<svg
   width="210mm"
   height="296.99997mm"
   viewBox="0 0 793.70081 1122.5196"
   version="1.1"
   id="svg1"
   xml:space="preserve"
   xmlns="http://www.w3.org/2000/svg"
   xmlns:svg="http://www.w3.org/2000/svg"><defs
     id="defs1" /><g
     id="layer1"
     transform="matrix(2.7783036,0,0,2.7783036,-464.48013,-288.43881)"><path
       d="m 317.66203,259.06088 c -43.63116,12.40867 -76.74815,51.31711 -74.15277,95.78406 3.03711,52.03465 50.9995,91.11011 106.33476,87.85481 55.3352,-3.25532 98.43051,-47.68764 95.39337,-99.72224 -2.4485,-41.94977 -34.30279,-75.47169 -75.47403,-85.18416 l -0.18433,14.40696 c 33.86347,9.50152 60.15018,37.36135 62.14699,71.57208 2.57186,44.06399 -34.05902,82.49456 -82.67399,85.35451 -48.61515,2.86001 -89.45925,-31.01282 -92.03115,-75.07684 -2.1421,-36.70014 24.32513,-70.09856 60.84495,-81.68457 z"
       style="baseline-shift:baseline;display:inline;overflow:visible;vector-effect:none;fill:#00e5ff;fill-opacity:1;stroke-width:3.55085;enable-background:accumulate;stop-color:#000000"
       id="path4-6" /><path
       style="baseline-shift:baseline;display:inline;overflow:visible;vector-effect:none;fill:#00e5ff;fill-opacity:1;stroke-width:3.54286;enable-background:accumulate;stop-color:#000000"
       d="m 264.21415,206.38034 c -35.38317,-1.11116 -73.58727,-23.5333 -87.20501,-57.62314 l -0.045,8.30681 0.66432,285.55308 12.9259,-0.0349 0.0761,-255.35587 c 12.73543,17.93152 34.94581,33.27985 73.97782,32.07268 38.50827,-1.19098 60.75344,-15.16008 73.26883,-32.29889 l -0.14201,169.80613 12.9259,0.0192 0.0321,-207.92741 c -11.70389,19.83281 -33.10272,55.82958 -86.47916,57.48041 z"
       id="path5-0" /></g></svg>
